<?xml version="1.0" encoding="UTF-8" standalone="no"?>
<svg
   xmlns:dc="http://purl.org/dc/elements/1.1/"
   xmlns:cc="http://creativecommons.org/ns#"
   xmlns:rdf="http://www.w3.org/1999/02/22-rdf-syntax-ns#"
   xmlns:svg="http://www.w3.org/2000/svg"
   xmlns="http://www.w3.org/2000/svg"
   xmlns:sodipodi="http://sodipodi.sourceforge.net/DTD/sodipodi-0.dtd"
   xmlns:inkscape="http://www.inkscape.org/namespaces/inkscape"
   id="svg"
   version="1.1"
   width="796"
   height="665"
   style="display:block"
   inkscape:version="0.91 r13725"
   sodipodi:docname="github.svg">
  <metadata
     id="metadata17">
    <rdf:RDF>
      <cc:Work
         rdf:about="">
        <dc:format>image/svg+xml</dc:format>
        <dc:type
           rdf:resource="http://purl.org/dc/dcmitype/StillImage" />
        <dc:title></dc:title>
      </cc:Work>
    </rdf:RDF>
  </metadata>
  <defs
     id="defs15" />
  <sodipodi:namedview
     pagecolor="#ffffff"
     bordercolor="#666666"
     borderopacity="1"
     objecttolerance="10"
     gridtolerance="10"
     guidetolerance="10"
     inkscape:pageopacity="0"
     inkscape:pageshadow="2"
     inkscape:window-width="1920"
     inkscape:window-height="1017"
     id="namedview13"
     showgrid="false"
     inkscape:zoom="0.50188632"
     inkscape:cx="127.52493"
     inkscape:cy="315.173"
     inkscape:window-x="1912"
     inkscape:window-y="-8"
     inkscape:window-maximized="1"
     inkscape:current-layer="svg" />
  <g
     id="svgg"
     transform="matrix(2.057045,0,0,2.057045,-11.22058,-6.8707926)">
    <path
       id="path0"
       d="m 150.75,106.451 c -12.869,3.306 -18.992,24.158 -11.54,39.299 9.767,19.845 31.275,9.873 31.275,-14.5 0,-15.383 -9.571,-27.411 -19.735,-24.799 m 92.646,0.231 c -10.633,2.948 -16.822,19.156 -12.885,33.746 4.972,18.426 22.481,21.485 30.271,5.289 8.855,-18.41 -2.206,-43.243 -17.386,-39.035 M 159,115.779 c 7.599,3.866 9.993,18.567 4.444,27.289 -6.996,10.995 -19.951,3.864 -20.109,-11.068 -0.128,-12.035 7.786,-20.229 15.665,-16.221 m 90.585,0.504 c 8.602,5.522 9.346,22.241 1.311,29.465 -10.883,9.786 -22.843,-8.947 -15.384,-24.097 3.13,-6.359 9.025,-8.608 14.073,-5.368 m -101.758,5.631 c -1.928,2.132 -0.51,5.086 2.441,5.086 1.848,0 2.732,-1.016 2.732,-3.14 0,-2.513 -3.475,-3.821 -5.173,-1.946 m 91.159,0.612 c -1.434,2.68 1.238,5.425 3.706,3.808 1.418,-0.929 1.79,-3.152 0.708,-4.234 -1.007,-1.007 -3.79,-0.739 -4.414,0.426"
       inkscape:connector-curvature="0"
       style="fill:#ffffff;fill-rule:evenodd;stroke:none" />
    <path
       id="path1"
       d="m 104.576,11.125 c -3.89,12.229 -4.68,27.421 -1.95,37.511 l 1.322,4.887 -3.349,4.174 C 85.59,76.408 81.386,110.351 90.772,137.054 l 0.634,1.804 -18.578,0.295 c -23.208,0.368 -37.547,1.541 -54.203,4.434 -5.413,0.94 -6.125,1.179 -6.125,2.054 0,0.869 0.229,0.95 1.875,0.663 22.068,-3.852 39.32,-5.298 63.248,-5.302 L 91.997,141 l 1.41,3.125 1.409,3.125 -5.533,0.376 C 54.328,149.999 13,156.739 13,160.067 c 0,1.213 -0.102,1.223 7.999,-0.817 20.362,-5.127 54.369,-9.746 71.782,-9.749 l 3.031,-0.001 3.159,4.825 c 11.4,17.411 32.969,28.877 62.029,32.976 3.162,0.446 5.997,0.878 6.299,0.96 0.302,0.082 -0.977,1.738 -2.843,3.679 -3.631,3.778 -6.962,9.653 -8.114,14.31 -0.75,3.032 -3.277,4.536 -10.501,6.25 -15.157,3.595 -26.821,-1.347 -35.991,-15.25 -7.293,-11.057 -15.971,-16.751 -25.528,-16.749 -9.863,0.002 -9.856,4.646 0.015,10.099 7.396,4.085 10.268,7.349 17.718,20.132 10.113,17.353 26.78,24.254 48.845,20.227 1.733,-0.316 3.229,-0.493 3.325,-0.392 0.095,0.101 0.252,8.845 0.349,19.433 l 0.176,19.25 -1.39,2.83 c -1.657,3.375 -4.509,6.086 -8.163,7.759 -6.749,3.089 -6.006,7.159 1.303,7.136 9.482,-0.029 18.585,-3.687 22.217,-8.927 3.451,-4.98 3.445,-4.931 3.812,-30.548 0.357,-24.889 0.522,-26.535 3.117,-31.195 2.39,-4.291 2.354,-4.795 2.351,33.028 -0.003,40.614 0.244,38.169 -4.279,42.434 -3.889,3.668 -4.511,5.486 -2.547,7.45 4.236,4.236 19.518,-2.669 23.528,-10.631 2.11,-4.19 2.222,-6.045 2.596,-42.964 0.39,-38.548 0.298,-37.424 2.97,-36.206 l 1.235,0.563 0.057,18.635 c 0.031,10.25 0.2,27.074 0.375,37.386 l 0.318,18.75 1.472,3 c 2.685,5.474 7.957,9.43 15.667,11.758 8.031,2.424 12.468,-1.838 6.997,-6.722 -5.528,-4.935 -5.373,-3.664 -5.38,-44.161 -0.003,-18.769 0.183,-34.125 0.415,-34.125 0.689,0 2.985,4.608 3.88,7.787 0.696,2.474 0.889,6.721 1.17,25.713 0.394,26.706 0.794,28.651 6.839,33.262 8.274,6.311 26.985,7.922 24.33,2.095 -0.59,-1.295 -1.097,-1.719 -5.376,-4.494 -7.774,-5.043 -7.976,-6.045 -7.997,-39.613 -0.021,-34.746 -0.711,-38.068 -9.831,-47.315 -3.016,-3.058 -3.263,-3.452 -2.284,-3.637 0.604,-0.114 3.798,-0.577 7.098,-1.028 30.885,-4.222 51.785,-16.044 60.806,-34.395 l 1.659,-3.375 3.767,0.001 c 18.147,0.002 51.757,4.521 72.519,9.749 8.101,2.04 7.999,2.03 7.999,0.817 0,-3.195 -43.719,-10.479 -72.873,-12.142 l -10.439,-0.595 1.102,-3.04 1.102,-3.04 19.429,0.027 c 23.347,0.033 39.248,1.251 55.65,4.264 6.41,1.177 6.529,1.178 6.529,0.034 0,-0.791 -0.884,-1.078 -6.125,-1.988 -17.67,-3.069 -33.249,-4.261 -56.272,-4.303 l -18.647,-0.034 0.323,-1.25 c 3.161,-12.246 4.505,-39.145 2.511,-50.25 -2.291,-12.759 -7.261,-23.289 -15.842,-33.563 l -3.394,-4.063 1.021,-4.937 c 1.96,-9.479 0.916,-22.933 -2.643,-34.062 L 285.953,6.5 281.352,6.504 c -10.759,0.008 -23.518,5.057 -41.652,16.481 -0.894,0.564 -2.081,0.462 -8,-0.682 -23.277,-4.499 -49.805,-4.056 -71.607,1.196 -5.464,1.316 -4.778,1.462 -10.674,-2.277 C 134.499,11.76 120.673,6.511 110.648,6.504 l -4.601,-0.004 -1.471,4.625 m 141.096,80.382 c 27.523,2.28 41.986,25.249 34.568,54.897 -5.08,20.305 -19.793,30.171 -49.49,33.184 -10.252,1.041 -49.802,0.879 -59.687,-0.244 -37.119,-4.217 -53.843,-17.716 -55.997,-45.195 -1.073,-13.682 2.979,-24.029 13.128,-33.522 9.335,-8.733 19.578,-10.464 49.556,-8.374 13.5,0.941 27.812,0.94 41.841,-0.003 6.138,-0.412 12.622,-0.819 14.409,-0.904 1.787,-0.084 3.813,-0.193 4.5,-0.242 0.688,-0.048 3.915,0.133 7.172,0.403 M 94.028,185.422 c 1.248,1.011 1.069,2.578 -0.295,2.578 -2.787,0 -3.839,-3.13 -1.163,-3.461 0.175,-0.021 0.832,0.376 1.458,0.883 m 6.361,4.356 c 1.274,0.893 1.497,3.105 0.357,3.543 -0.86,0.33 -3.163,-1.022 -3.576,-2.1 -0.77,-2.006 1.172,-2.877 3.219,-1.443 m 7.3,7.994 c 1.159,3.019 -0.96,4.534 -3.203,2.291 -1.67,-1.67 -1.849,-2.629 -0.704,-3.774 0.915,-0.915 3.34,0.005 3.907,1.483 m 6.017,7.57 c 1.887,1.888 1.634,3.851 -0.523,4.06 -2.505,0.244 -4.704,-3.181 -3.083,-4.802 0.953,-0.953 2.158,-0.705 3.606,0.742 m 7.783,6.903 c 2.652,1.371 2.385,4.255 -0.393,4.255 -2.609,0 -4.646,-3.339 -2.721,-4.46 1.17,-0.681 1.435,-0.664 3.114,0.205 m 32.202,2.449 c -0.071,2.245 -0.305,2.511 -1.863,2.12 -1.881,-0.472 -2.121,-1.863 -0.555,-3.211 1.751,-1.506 2.49,-1.172 2.418,1.091 m -21.166,1.069 c 2.44,1.262 1.673,3.737 -1.158,3.737 -3.003,0 -4.512,-1.855 -2.856,-3.511 1.188,-1.188 2.059,-1.237 4.014,-0.226 m 12.008,0.255 c 2.399,1.283 -0.099,4.376 -3.017,3.736 -0.838,-0.185 -1.765,-0.786 -2.06,-1.336 -1.131,-2.113 2.451,-3.806 5.077,-2.4"
       inkscape:connector-curvature="0"
       style="fill:#201f1f;fill-rule:evenodd;stroke:none" />
    <path
       id="path2"
       d="m 194.125,93.358 c 0.756,0.115 1.994,0.115 2.75,0 0.756,-0.114 0.137,-0.208 -1.375,-0.208 -1.512,0 -2.131,0.094 -1.375,0.208 m 6,0 c 0.756,0.115 1.994,0.115 2.75,0 0.756,-0.114 0.137,-0.208 -1.375,-0.208 -1.512,0 -2.131,0.094 -1.375,0.208 m -49.171,22.799 c -8.117,4.262 -9.95,20.327 -3.217,28.193 4.292,5.013 10.957,4.825 14.753,-0.416 9.125,-12.596 0.249,-33.965 -11.536,-27.777 m 90,0.006 c -8.467,4.469 -10.086,21.093 -2.802,28.772 6.622,6.981 16.062,1.662 17.852,-10.06 1.899,-12.437 -6.695,-23.122 -15.05,-18.712 m -88.681,5.564 c 3.216,3.217 -1.299,7.801 -4.616,4.686 -2.068,-1.943 -0.495,-5.913 2.343,-5.913 0.575,0 1.598,0.552 2.273,1.227 M 243.5,122 c 1.201,1.201 1.269,2.393 0.222,3.889 -1.11,1.584 -3.921,1.535 -4.983,-0.086 -2.089,-3.187 2.062,-6.502 4.761,-3.803 m -47.773,28.727 c -1.58,1.581 -1.597,3.787 -0.042,5.595 2.475,2.877 7.315,0.976 7.315,-2.873 0,-3.524 -4.709,-5.286 -7.273,-2.722 m -6.951,12.731 c -1.6,2.589 5.058,8.009 9.865,8.031 4.94,0.023 11.084,-4.81 9.998,-7.864 -0.371,-1.043 -2.133,-0.705 -2.603,0.5 -2.313,5.919 -11.247,6.333 -14.301,0.662 -0.911,-1.692 -2.339,-2.333 -2.959,-1.329 m 23.099,16.895 c 0.619,0.119 1.631,0.119 2.25,0 0.619,-0.119 0.113,-0.217 -1.125,-0.217 -1.238,0 -1.744,0.098 -1.125,0.217"
       inkscape:connector-curvature="0"
       style="fill:#ac5c51;fill-rule:evenodd;stroke:none" />
    <path
       id="path3"
       d="m 148.75,91.837 c -17.649,2.203 -32.025,16.405 -33.505,33.1 l -0.25,2.813 0.739,-3.214 c 2.545,-11.064 12.179,-22.929 21.788,-26.834 7.263,-2.951 19.855,-3.394 40.228,-1.415 12.662,1.231 28.759,1.141 44.75,-0.249 27.958,-2.429 37.56,-0.74 46.715,8.218 5.909,5.781 9.897,12.319 11.82,19.378 l 0.984,3.616 -0.299,-2.904 c -1.108,-10.748 -10.343,-23.86 -20.371,-28.922 -7.675,-3.875 -18.433,-4.722 -39.86,-3.141 -14.953,1.103 -31.444,1.112 -46.193,0.025 -9.905,-0.731 -22.654,-0.957 -26.546,-0.471 M 160,116.656 c 0,0.087 0.731,0.818 1.625,1.625 l 1.625,1.469 -1.469,-1.625 C 160.413,116.61 160,116.27 160,116.656 M 126.75,162.5 c 1.074,1.1 2.065,2 2.203,2 0.137,0 -0.629,-0.9 -1.703,-2 -1.074,-1.1 -2.065,-2 -2.203,-2 -0.137,0 0.629,0.9 1.703,2 m 142.976,2.625 -1.976,2.125 2.125,-1.976 c 1.976,-1.839 2.355,-2.274 1.976,-2.274 -0.081,0 -1.037,0.956 -2.125,2.125 m -71.845,6.729 c 0.622,0.119 1.522,0.115 2,-0.01 0.478,-0.126 -0.031,-0.223 -1.131,-0.218 -1.1,0.006 -1.491,0.108 -0.869,0.228 m -2.756,8.519 c 2.956,0.089 7.794,0.089 10.75,0 2.956,-0.088 0.537,-0.161 -5.375,-0.161 -5.912,0 -8.331,0.073 -5.375,0.161"
       inkscape:connector-curvature="0"
       style="fill:#c49b86;fill-rule:evenodd;stroke:none" />
    <path
       id="path4"
       d="m 144.377,95.754 c -17.694,3.363 -30.737,21.068 -28.953,39.3 2.612,26.696 18.288,39.214 55.076,43.981 6.338,0.822 46.921,1.188 56.111,0.507 38.196,-2.831 53.46,-15.679 55.172,-46.439 0.584,-10.494 -3.582,-20.056 -12.568,-28.847 -9.155,-8.958 -18.757,-10.647 -46.715,-8.218 -16.024,1.393 -32.104,1.481 -44.75,0.244 -12.289,-1.201 -28.482,-1.457 -33.373,-0.528 M 159,107.636 c 13.035,6.182 15.713,32.352 4.49,43.874 -11.555,11.864 -27.473,0.125 -27.473,-20.26 0,-17.182 11.542,-29.041 22.983,-23.614 m 93.538,0.133 c 13.403,6.792 15.464,33.289 3.455,44.407 -11.719,10.85 -26.576,-0.824 -26.576,-20.881 0,-17.601 11.574,-29.377 23.121,-23.526 M 143.136,131.5 c 0,1.238 0.098,1.744 0.217,1.125 0.119,-0.619 0.119,-1.631 0,-2.25 -0.119,-0.619 -0.217,-0.113 -0.217,1.125 m 57.522,18.082 c 4.072,2.168 2.656,8.418 -1.908,8.418 -2.496,0 -4.255,-1.809 -4.234,-4.352 0.03,-3.572 3.169,-5.65 6.142,-4.066 m -8.916,14.905 c 2.159,3.42 5.495,4.892 8.968,3.956 2.038,-0.548 5.29,-3.423 5.29,-4.675 0,-0.814 1.239,-1.337 2.25,-0.949 2.786,1.069 -2.334,7.492 -6.966,8.739 -5.106,1.375 -12.784,-3.056 -12.784,-7.377 0,-2.391 1.637,-2.236 3.242,0.306"
       inkscape:connector-curvature="0"
       style="fill:#f4cab1;fill-rule:evenodd;stroke:none" />
    <path
       id="path5"
       d="m 238.125,91.358 c 0.756,0.115 1.994,0.115 2.75,0 0.756,-0.114 0.137,-0.208 -1.375,-0.208 -1.512,0 -2.131,0.094 -1.375,0.208 M 282.116,129 c 0,0.963 0.103,1.356 0.229,0.875 0.125,-0.481 0.125,-1.269 0,-1.75 -0.126,-0.481 -0.229,-0.088 -0.229,0.875 m -96.991,51.345 c 0.481,0.125 1.269,0.125 1.75,0 0.481,-0.126 0.088,-0.229 -0.875,-0.229 -0.963,0 -1.356,0.103 -0.875,0.229 m 30.75,0.008 c 0.619,0.119 1.631,0.119 2.25,0 0.619,-0.119 0.113,-0.217 -1.125,-0.217 -1.238,0 -1.744,0.098 -1.125,0.217 m 28.312,80.397 c 10e-4,3.025 0.084,4.198 0.183,2.607 0.1,-1.592 0.099,-4.067 -0.002,-5.5 -0.101,-1.434 -0.182,-0.132 -0.181,2.893 m -89.496,1 c 0.001,3.3 0.082,4.585 0.18,2.855 0.098,-1.729 0.097,-4.429 -0.002,-6 -0.099,-1.57 -0.179,-0.155 -0.178,3.145 m 46.964,15.5 c 0.003,1.65 0.096,2.265 0.207,1.366 0.112,-0.899 0.109,-2.249 -0.005,-3 -0.114,-0.751 -0.205,-0.016 -0.202,1.634"
       inkscape:connector-curvature="0"
       style="fill:#56707a;fill-rule:evenodd;stroke:none" />
    <path
       id="path6"
       d="m 197.22,266 c 0,7.837 0.069,11.044 0.154,7.125 0.084,-3.919 0.084,-10.331 0,-14.25 -0.085,-3.919 -0.154,-0.712 -0.154,7.125 m 4.494,-2.5 c 0,6.188 0.072,8.719 0.159,5.625 0.088,-3.094 0.088,-8.156 0,-11.25 -0.087,-3.094 -0.159,-0.562 -0.159,5.625 m -44.464,22.143 c -1.702,0.544 -5.38,1.106 -8.5,1.298 l -5.5,0.339 1.82,0.811 c 7.464,3.329 9.93,9.288 9.93,24 0,5.45 0.056,9.91 0.125,9.911 0.069,0.002 3.162,0.451 6.875,0.998 3.713,0.547 7.481,0.996 8.375,0.998 L 172,324 l 0,-11.75 c 0,-11.083 -0.057,-11.807 -1,-12.75 -1.076,-1.076 -1.298,-3.009 -0.513,-4.476 0.898,-1.678 -3.479,-6.487 -7.987,-8.775 -0.963,-0.489 -1.863,-1.041 -2,-1.227 -0.137,-0.187 -1.6,0.093 -3.25,0.621 m 79.75,0.475 c -4.67,2.349 -8.555,6.84 -8.194,9.473 0.263,1.92 0.142,2.461 -0.746,3.349 -1.022,1.022 -1.06,1.497 -1.06,13.286 l 0,12.227 2.625,-0.296 c 1.444,-0.162 5.213,-0.658 8.375,-1.101 l 5.75,-0.806 0.277,-10.75 c 0.37,-14.3 2.59,-19.547 9.737,-23.007 3.277,-1.586 3.09,-1.759 -1.715,-1.585 -3.885,0.141 -6.433,-0.216 -11.799,-1.653 -0.55,-0.148 -2.012,0.241 -3.25,0.863 m -47.756,9.23 c -1.882,1.437 -7.884,4.112 -10.583,4.716 -2.132,0.477 -2.639,0.772 -2.398,1.395 1.337,3.46 1.848,7.879 1.786,15.416 l -0.068,8.125 3.98,0 c 2.189,0 4.084,0.169 4.21,0.375 0.127,0.206 2.53,0.303 5.34,0.215 l 5.11,-0.159 -0.24,-9.091 c -0.333,-12.58 -4.005,-23.383 -7.137,-20.992 m 17.81,2.067 c -3.253,5.071 -4.554,11.262 -4.554,21.681 l 0,6.654 6.789,-0.08 c 3.734,-0.045 6.921,-0.213 7.083,-0.375 0.162,-0.162 1.27,-0.295 2.461,-0.295 l 2.167,0 0,-7.776 c 0,-7.437 0.777,-13.362 2.077,-15.849 0.361,-0.69 0.253,-0.875 -0.512,-0.875 -1.695,0 -8.152,-2.405 -10.687,-3.98 -3.113,-1.936 -2.993,-1.958 -4.824,0.895"
       inkscape:connector-curvature="0"
       style="fill:#7dabbc;fill-rule:evenodd;stroke:none" />
    <path
       id="path7"
       d="m 91.59,186.125 c 0.171,1.206 2.134,1.851 3,0.985 0.639,-0.639 -0.867,-2.11 -2.16,-2.11 -0.751,0 -0.96,0.28 -0.84,1.125 m -10.998,3.931 c -3.375,9.254 -3.498,13.574 -0.415,14.591 4.043,1.334 5.05,-2.249 2.803,-9.976 -1.806,-6.213 -1.805,-6.212 -2.388,-4.615 m 16.908,0.408 c 0,1.227 1.294,2.536 2.506,2.536 1.383,0 1.685,-0.884 0.776,-2.272 -1.006,-1.535 -3.282,-1.718 -3.282,-0.264 m 6.18,6.287 c -0.464,1.209 0.248,3.175 1.365,3.773 1.433,0.767 2.455,0.244 2.455,-1.258 0,-2.288 -3.119,-4.341 -3.82,-2.515 m 6.512,8.47 c -0.47,1.225 0.001,2.38 1.394,3.419 1.629,1.216 2.914,0.83 2.914,-0.874 0,-2.36 -3.57,-4.469 -4.308,-2.545 m 8.04,7.307 c -1.046,1.694 1.72,4.372 3.825,3.704 1.31,-0.416 1.208,-2.489 -0.168,-3.454 -1.277,-0.894 -3.178,-1.024 -3.657,-0.25 m 33.143,1.012 c -1.164,0.678 -1.113,2.297 0.092,2.942 1.641,0.878 2.033,0.592 2.033,-1.482 0,-2.081 -0.486,-2.415 -2.125,-1.46 m -22.87,2.704 c -1.321,1.592 1.215,3.686 3.708,3.06 0.944,-0.237 1.287,-0.649 1.287,-1.546 0,-2.036 -3.645,-3.141 -4.995,-1.514 m 12.106,0.034 c -1.992,1.395 -0.854,3.222 2.006,3.222 2.468,0 3.306,-2.674 1.1,-3.512 -1.674,-0.637 -1.798,-0.626 -3.106,0.29 m 56.879,49.097 c -0.014,18.244 -0.928,22.946 -5.283,27.167 -2.072,2.008 -2.07,1.966 -0.204,4.542 2.988,4.124 4.108,9.057 4.378,19.272 l 0.24,9.106 -4.935,0.165 c -3.664,0.121 -2.907,0.191 2.939,0.268 l 7.875,0.105 0.017,-7.125 c 0.026,-10.6 1.437,-16.971 4.858,-21.944 l 1.531,-2.224 -2.02,-1.979 c -1.111,-1.088 -2.721,-3.44 -3.578,-5.228 l -1.558,-3.25 -0.162,-16.125 -0.162,-16.125 -1.963,0 -1.963,0 -0.01,13.375 m 23.624,2.68 c 0.236,18.382 0.466,19.591 4.485,23.528 l 2.381,2.333 3.385,-3.343 c 1.862,-1.838 4.339,-3.788 5.504,-4.333 2.569,-1.2 2.601,-1.369 0.411,-2.161 -7.456,-2.696 -10.78,-9.685 -10.78,-22.67 l 0,-8.409 -1.625,-0.007 c -0.894,-0.004 -2.151,-0.147 -2.793,-0.32 l -1.169,-0.312 0.201,15.694 m -47.989,-14.724 c -0.464,0.187 -0.625,2.344 -0.625,8.37 0,12.587 -2.775,18.585 -10.245,22.147 -2.157,1.029 -2.185,1.353 -0.188,2.18 2.236,0.926 6.257,4.217 7.536,6.168 l 1.09,1.664 2.37,-1.703 c 4.534,-3.258 4.661,-3.852 4.853,-22.782 l 0.167,-16.375 -2.167,0.039 c -1.191,0.022 -2.447,0.153 -2.791,0.292 m 71.458,8.544 c 0.255,8.867 3.117,14.545 8.774,17.406 6.109,3.088 6.1,6.352 -0.025,9.452 -6.808,3.445 -8.94,8.664 -9.305,22.767 l -0.277,10.75 -5.75,0.806 c -3.162,0.443 -6.931,0.939 -8.375,1.101 l -2.625,0.296 0,-12.126 0,-12.126 -1.762,0.206 c -0.97,0.113 -1.955,0.574 -2.191,1.024 -1.27,2.432 -2.047,8.418 -2.047,15.765 l 0,7.749 -2.125,0.216 c -1.169,0.119 0.238,0.13 3.125,0.025 23.615,-0.862 52.504,-7.793 67.869,-16.284 32.114,-17.746 14.948,-41.914 -37.034,-52.14 -9.372,-1.844 -8.468,-2.404 -8.252,5.113 M 144.5,257.735 c -67.901,15.646 -64.173,50.326 6.878,63.99 3.646,0.701 7.133,1.248 7.75,1.216 0.617,-0.033 -0.059,-0.275 -1.503,-0.539 l -2.625,-0.478 0,-9.871 c 0,-15.471 -2.282,-20.446 -11.266,-24.56 -3.135,-1.436 -3.535,-1.928 -3.248,-3.993 0.181,-1.302 1.607,-2.493 4.819,-4.026 6.832,-3.261 9.195,-7.774 9.195,-17.565 l 0,-5.909 -1.375,0.032 c -0.756,0.018 -4.637,0.785 -8.625,1.703 m 27.5,54.565 0,11.7 -2.125,0.074 c -2.52,0.087 2.169,0.773 5.958,0.872 l 2.083,0.054 0.185,-6.125 c 0.365,-12.152 -0.965,-18.084 -4.082,-18.2 L 172,300.6 l 0,11.7 m -10.875,11.045 c 0.481,0.125 1.269,0.125 1.75,0 0.481,-0.126 0.088,-0.229 -0.875,-0.229 -0.963,0 -1.356,0.103 -0.875,0.229 m 3.756,0.509 c 0.622,0.119 1.522,0.115 2,-0.01 0.478,-0.126 -0.031,-0.223 -1.131,-0.218 -1.1,0.006 -1.491,0.108 -0.869,0.228 m 15.507,1.513 c 1.176,0.105 2.976,0.104 4,-0.004 1.024,-0.107 0.062,-0.193 -2.138,-0.192 -2.2,0.002 -3.038,0.09 -1.862,0.196 m 26.007,0.504 c 1.729,0.098 4.429,0.097 6,-0.002 1.57,-0.099 0.155,-0.179 -3.145,-0.178 -3.3,0.001 -4.585,0.082 -2.855,0.18"
       inkscape:connector-curvature="0"
       style="fill:#9cdaf0;fill-rule:evenodd;stroke:none" />
    <path
       id="path8"
       d=""
       inkscape:connector-curvature="0"
       style="fill:#55ffff;fill-rule:evenodd;stroke:none" />
  </g>
</svg>
