<?xml version="1.0" encoding="UTF-8" standalone="no"?>
<svg
   xmlns:dc="http://purl.org/dc/elements/1.1/"
   xmlns:cc="http://creativecommons.org/ns#"
   xmlns:rdf="http://www.w3.org/1999/02/22-rdf-syntax-ns#"
   xmlns:svg="http://www.w3.org/2000/svg"
   xmlns="http://www.w3.org/2000/svg"
   viewBox="0 0 194.325 180"
   height="180"
   width="194.325"
   xml:space="preserve"
   version="1.1"
   id="svg3358"><metadata
     id="metadata3364"><rdf:RDF><cc:Work
         rdf:about=""><dc:format>image/svg+xml</dc:format><dc:type
           rdf:resource="http://purl.org/dc/dcmitype/StillImage" /><dc:title></dc:title></cc:Work></rdf:RDF></metadata><defs
     id="defs3362" /><g
     transform="matrix(1.25,0,0,-1.25,0,180)"
     id="g3366"><g
       transform="scale(0.1,0.1)"
       id="g3368"><path
         id="path3370"
         style="fill:#18679e;fill-opacity:1;fill-rule:nonzero;stroke:none"
         d="m 1333.44,1440 -1227.151,0 C 47.6484,1440 0,1393.52 0,1336.23 L 0,103.891 C 0,46.5508 47.6484,0 106.289,0 L 1333.44,0 c 58.75,0 106.6,46.5508 106.6,103.891 l 0,1232.339 c 0,57.29 -47.85,103.77 -106.6,103.77" /><path
         id="path3372"
         style="fill:#ffffff;fill-opacity:1;fill-rule:nonzero;stroke:none"
         d="m 320.344,1241.74 c 68.277,0 123.777,-55.49 123.777,-123.79 0,-68.37 -55.5,-123.864 -123.777,-123.864 -68.457,0 -123.86,55.494 -123.86,123.864 0,68.3 55.403,123.79 123.86,123.79 m -106.848,-341.595 213.594,0 0,-687.215 -213.594,0 0,687.215" /><path
         id="path3374"
         style="fill:#ffffff;fill-opacity:1;fill-rule:nonzero;stroke:none"
         d="m 561.063,900.145 204.843,0 0,-93.907 2.864,0 c 28.511,54.035 98.187,110.992 202.093,110.992 216.287,0 256.217,-142.335 256.217,-327.343 l 0,-376.957 -213.44,0 0,334.203 c 0,79.687 -1.47,182.191 -110.988,182.191 -111.125,0 -128.187,-86.801 -128.187,-176.429 l 0,-339.965 -213.402,0 0,687.215" /><path
         id="path3376"
         style="fill:#231f20;fill-opacity:1;fill-rule:nonzero;stroke:none"
         d="m 1475.12,249.109 11.61,0 0,-36.179 6.31,0 0,36.179 11.58,0 0,6.313 -29.5,0 0,-6.313" /><path
         id="path3378"
         style="fill:#231f20;fill-opacity:1;fill-rule:nonzero;stroke:none"
         d="m 1545.65,255.422 -12.39,-31.192 -12.39,31.192 -8.98,0 0,-42.492 6.28,0 0,32.332 13,-32.332 4.19,0 12.99,32.332 0,-32.332 6.28,0 0,42.492 -8.98,0" /></g></g></svg>